<svg xmlns="http://www.w3.org/2000/svg" viewBox="0 0 512 640" x="0px" y="0px"><title>Order_history</title><g><path d="M436.7266,287.4609A103.32,103.32,0,0,0,261.79,342.873l-6.3565-6.3574a7.9991,7.9991,0,0,0-11.3125,11.3125L262.53,366.2363a8.0253,8.0253,0,0,0,11.3223,0l18.413-18.4082a7.9991,7.9991,0,0,0-11.3125-11.3125l-1.8173,1.8164a87.3382,87.3382,0,1,1,22.6572,84.0664,7.9991,7.9991,0,0,0-11.3125,11.3125,103.413,103.413,0,0,0,146.2461-146.25Z"/><path d="M363.6055,291.32a7.9979,7.9979,0,0,0-8,8v61.2656a8.115,8.115,0,0,0,2.3506,5.6641l28.9931,28.9922A7.9991,7.9991,0,0,0,398.2617,383.93l-26.6562-26.6563V299.32A7.9979,7.9979,0,0,0,363.6055,291.32Z"/><path d="M237.4414,377.4219a7.9921,7.9921,0,0,0-2.2734-4.6016l-8.0195-8.0234a31.554,31.554,0,0,1-5.5928-37.4141H150.4766a8,8,0,1,1,0-16h91.13c.42-.1094.8183-.2734,1.2451-.3672a7.9956,7.9956,0,0,0,5.5156-4.4062,127.3874,127.3874,0,0,1,22.96-33.4375H150.4766a8,8,0,0,1,0-16h139.166a127.01,127.01,0,0,1,73.9629-24,128.5606,128.5606,0,0,1,24.3086,2.32,7.9123,7.9123,0,0,0,6.6094-1.68,7.9994,7.9994,0,0,0,2.91-6.1719V56a7.9979,7.9979,0,0,0-8-8H95.0391a7.9979,7.9979,0,0,0-8,8V354.4688a134.708,134.708,0,0,1-39.711,95.875A7.9993,7.9993,0,0,0,52.9844,464H267.6328a8,8,0,0,0,5.6719-13.6406A127.9434,127.9434,0,0,1,237.4414,377.4219ZM150.4766,148.7656h183.52a8,8,0,0,1,0,16h-183.52a8,8,0,0,1,0-16Zm0,54.2032h183.52a8,8,0,0,1,0,16h-183.52a8,8,0,1,1,0-16Z"/></g><text x="0" y="527" fill="#000000" font-size="5px" font-weight="bold" font-family="'Helvetica Neue', Helvetica, Arial-Unicode, Arial, Sans-serif">Created by Chanut is Industries</text><text x="0" y="532" fill="#000000" font-size="5px" font-weight="bold" font-family="'Helvetica Neue', Helvetica, Arial-Unicode, Arial, Sans-serif">from the Noun Project</text></svg>